<svg xmlns="http://www.w3.org/2000/svg" version="1.1" xmlns:xlink="http://www.w3.org/1999/xlink" width="512" height="512" x="0" y="0" viewBox="0 0 511 512" style="enable-background:new 0 0 512 512" xml:space="preserve" class=""><g><path fill="#478fdf" d="M8.379 72.477A7.879 7.879 0 0 1 .5 64.597v-53.39a7.879 7.879 0 1 1 15.758 0v53.39a7.879 7.879 0 0 1-7.88 7.88zM101.48 72.477a7.879 7.879 0 0 1-7.878-7.88v-53.39a7.879 7.879 0 1 1 15.758 0v53.39c.003 4.352-3.528 7.88-7.88 7.88zM55.383 72.477h-.903c-12.601 0-22.851-10.25-22.851-22.848V22.852C31.629 10.254 41.879.004 54.48.004h.903c12.597 0 22.847 10.25 22.847 22.848v26.777c0 12.598-10.25 22.848-22.847 22.848zm-.903-56.715c-3.91 0-7.09 3.18-7.09 7.09v26.777c0 3.91 3.18 7.09 7.09 7.09h.903c3.91 0 7.09-3.184 7.09-7.09V22.852c0-3.91-3.18-7.09-7.09-7.09zM148.484 72.477h-.902c-12.598 0-22.848-10.25-22.848-22.848V22.852c0-12.598 10.25-22.848 22.848-22.848h.902c12.602 0 22.852 10.25 22.852 22.848v26.777c0 12.598-10.25 22.848-22.852 22.848zm-.902-56.715c-3.91 0-7.09 3.18-7.09 7.09v26.777c0 3.91 3.18 7.09 7.09 7.09h.902c3.91 0 7.09-3.184 7.09-7.09V22.852c0-3.91-3.18-7.09-7.09-7.09zM210.457 72.477h-.902c-12.598 0-22.848-10.25-22.848-22.848V22.852c0-12.598 10.25-22.848 22.848-22.848h.902c12.602 0 22.852 10.25 22.852 22.848v26.777c0 12.598-10.25 22.848-22.852 22.848zm-.902-56.715c-3.91 0-7.09 3.18-7.09 7.09v26.777c0 3.91 3.18 7.09 7.09 7.09h.902c3.91 0 7.094-3.184 7.094-7.09V22.852c0-3.91-3.184-7.09-7.094-7.09zM224.473 159.113a7.879 7.879 0 0 1-7.88-7.879v-53.39a7.876 7.876 0 0 1 7.88-7.88 7.876 7.876 0 0 1 7.879 7.88v53.39a7.879 7.879 0 0 1-7.88 7.88zM224.473 420.598a7.879 7.879 0 0 1-7.88-7.88v-53.394a7.879 7.879 0 1 1 15.759 0v53.395a7.879 7.879 0 0 1-7.88 7.879zM70.855 159.113a7.879 7.879 0 0 1-7.878-7.879v-53.39a7.876 7.876 0 0 1 7.878-7.88 7.876 7.876 0 0 1 7.88 7.88v53.39a7.879 7.879 0 0 1-7.88 7.88zM8.379 246.664A7.879 7.879 0 0 1 .5 238.785v-53.394a7.879 7.879 0 1 1 15.758 0v53.394a7.879 7.879 0 0 1-7.88 7.88zM38.977 246.664a7.879 7.879 0 0 1-7.88-7.879v-53.394a7.879 7.879 0 1 1 15.758 0v53.394a7.879 7.879 0 0 1-7.878 7.88zM69.57 246.664a7.879 7.879 0 0 1-7.879-7.879v-53.394a7.881 7.881 0 0 1 7.88-7.88 7.876 7.876 0 0 1 7.878 7.88v53.394a7.874 7.874 0 0 1-7.879 7.88zM163.957 246.664a7.879 7.879 0 0 1-7.879-7.879v-53.394a7.881 7.881 0 0 1 15.762 0v53.394a7.882 7.882 0 0 1-7.883 7.88zM24.754 159.113h-.902c-12.598 0-22.848-10.25-22.848-22.847v-26.778c0-12.601 10.25-22.851 22.848-22.851h.902c12.601 0 22.851 10.25 22.851 22.851v26.778c0 12.597-10.25 22.847-22.851 22.847zm-.902-56.718c-3.91 0-7.09 3.183-7.09 7.093v26.774c0 3.91 3.18 7.093 7.09 7.093h.902c3.91 0 7.09-3.183 7.09-7.093v-26.774c0-3.91-3.18-7.093-7.09-7.093zM117.86 248.324h-.903c-12.602 0-22.852-10.25-22.852-22.847v-26.778c0-12.601 10.25-22.851 22.852-22.851h.902c12.598 0 22.848 10.25 22.848 22.851v26.778c0 12.597-10.25 22.847-22.848 22.847zm-.903-56.715c-3.91 0-7.094 3.18-7.094 7.09v26.778c0 3.91 3.184 7.09 7.094 7.09h.898c3.91 0 7.094-3.184 7.094-7.09v-26.778c0-3.91-3.183-7.09-7.094-7.09zM210.555 248.324h-.903c-12.601 0-22.851-10.25-22.851-22.847v-26.778c0-12.601 10.25-22.851 22.851-22.851h.903c12.597 0 22.847 10.25 22.847 22.851v26.778c0 12.597-10.25 22.847-22.847 22.847zm-.903-56.715c-3.91 0-7.09 3.18-7.09 7.09v26.778c0 3.91 3.18 7.09 7.09 7.09h.903c3.91 0 7.09-3.184 7.09-7.09v-26.778c0-3.91-3.18-7.09-7.09-7.09zM117.86 159.113h-.903c-12.602 0-22.852-10.25-22.852-22.847v-26.778c0-12.601 10.25-22.851 22.852-22.851h.902c12.598 0 22.848 10.25 22.848 22.851v26.778c0 12.597-10.25 22.847-22.848 22.847zm-.903-56.718c-3.91 0-7.094 3.183-7.094 7.093v26.774c0 3.91 3.184 7.093 7.094 7.093h.898c3.91 0 7.094-3.183 7.094-7.093v-26.774c0-3.91-3.183-7.093-7.094-7.093zM179.832 159.113h-.902c-12.602 0-22.852-10.25-22.852-22.847v-26.778c0-12.601 10.25-22.851 22.852-22.851h.902c12.598 0 22.848 10.25 22.848 22.851v26.778c0 12.597-10.25 22.847-22.848 22.847zm-.902-56.718c-3.91 0-7.09 3.183-7.09 7.093v26.774c0 3.91 3.18 7.093 7.09 7.093h.902c3.91 0 7.09-3.183 7.09-7.093v-26.774c0-3.91-3.18-7.093-7.09-7.093zM8.379 333.96A7.879 7.879 0 0 1 .5 326.083v-53.39a7.879 7.879 0 1 1 15.758 0v53.39a7.879 7.879 0 0 1-7.88 7.879zM101.48 333.96a7.879 7.879 0 0 1-7.878-7.878v-53.39a7.879 7.879 0 1 1 15.758 0v53.39c.003 4.352-3.528 7.879-7.88 7.879zM55.383 333.96h-.903c-12.601 0-22.851-10.25-22.851-22.847v-26.777c0-12.602 10.25-22.852 22.851-22.852h.903c12.597 0 22.847 10.25 22.847 22.852v26.777c0 12.598-10.25 22.848-22.847 22.848zm-.903-56.714c-3.91 0-7.09 3.18-7.09 7.09v26.777c0 3.91 3.18 7.09 7.09 7.09h.903c3.91 0 7.09-3.183 7.09-7.09v-26.777c0-3.91-3.18-7.09-7.09-7.09zM148.484 333.96h-.902c-12.598 0-22.848-10.25-22.848-22.847v-26.777c0-12.602 10.25-22.852 22.848-22.852h.902c12.602 0 22.852 10.25 22.852 22.852v26.777c0 12.598-10.25 22.848-22.852 22.848zm-.902-56.714c-3.91 0-7.09 3.18-7.09 7.09v26.777c0 3.91 3.18 7.09 7.09 7.09h.902c3.91 0 7.09-3.183 7.09-7.09v-26.777c0-3.91-3.18-7.09-7.09-7.09zM210.457 333.96h-.902c-12.598 0-22.848-10.25-22.848-22.847v-26.777c0-12.602 10.25-22.852 22.848-22.852h.902c12.602 0 22.852 10.25 22.852 22.852v26.777c0 12.598-10.25 22.848-22.852 22.848zm-.902-56.714c-3.91 0-7.09 3.18-7.09 7.09v26.777c0 3.91 3.18 7.09 7.09 7.09h.902c3.91 0 7.094-3.183 7.094-7.09v-26.777c0-3.91-3.184-7.09-7.094-7.09zM70.855 420.598a7.879 7.879 0 0 1-7.878-7.88v-53.394a7.879 7.879 0 1 1 15.757 0v53.395a7.879 7.879 0 0 1-7.879 7.879zM8.379 508.145a7.879 7.879 0 0 1-7.879-7.88v-53.39a7.879 7.879 0 1 1 15.758 0v53.39a7.879 7.879 0 0 1-7.88 7.88zM38.977 508.145a7.879 7.879 0 0 1-7.88-7.88v-53.39a7.879 7.879 0 1 1 15.758 0v53.39a7.879 7.879 0 0 1-7.878 7.88zM69.57 508.145a7.879 7.879 0 0 1-7.879-7.88v-53.39a7.881 7.881 0 0 1 7.88-7.879 7.876 7.876 0 0 1 7.878 7.879v53.39a7.874 7.874 0 0 1-7.879 7.88zM163.957 508.145a7.879 7.879 0 0 1-7.879-7.88v-53.39a7.881 7.881 0 0 1 15.762 0v53.39a7.882 7.882 0 0 1-7.883 7.88zM24.754 420.598h-.902c-12.598 0-22.848-10.25-22.848-22.852v-26.773c0-12.602 10.25-22.852 22.848-22.852h.902c12.601 0 22.851 10.25 22.851 22.852v26.773c0 12.602-10.25 22.852-22.851 22.852zm-.902-56.72c-3.91 0-7.09 3.184-7.09 7.095v26.773c0 3.91 3.18 7.094 7.09 7.094h.902c3.91 0 7.09-3.184 7.09-7.094v-26.773c0-3.91-3.18-7.094-7.09-7.094zM117.86 509.809h-.903c-12.602 0-22.852-10.25-22.852-22.852v-26.773c0-12.602 10.25-22.852 22.852-22.852h.902c12.598 0 22.848 10.25 22.848 22.852v26.773c0 12.602-10.25 22.852-22.848 22.852zm-.903-56.72c-3.91 0-7.094 3.184-7.094 7.095v26.773c0 3.91 3.184 7.094 7.094 7.094h.898c3.91 0 7.094-3.184 7.094-7.094v-26.773c0-3.91-3.183-7.094-7.094-7.094zM210.555 509.809h-.903c-12.601 0-22.851-10.25-22.851-22.852v-26.773c0-12.602 10.25-22.852 22.851-22.852h.903c12.597 0 22.847 10.25 22.847 22.852v26.773c0 12.602-10.25 22.852-22.847 22.852zm-.903-56.72c-3.91 0-7.09 3.184-7.09 7.095v26.773c0 3.91 3.18 7.094 7.09 7.094h.903c3.91 0 7.09-3.184 7.09-7.094v-26.773c0-3.91-3.18-7.094-7.09-7.094zM117.86 420.598h-.903c-12.602 0-22.852-10.25-22.852-22.852v-26.773c0-12.602 10.25-22.852 22.852-22.852h.902c12.598 0 22.848 10.25 22.848 22.852v26.773c0 12.602-10.25 22.852-22.848 22.852zm-.903-56.72c-3.91 0-7.094 3.184-7.094 7.095v26.773c0 3.91 3.184 7.094 7.094 7.094h.898c3.91 0 7.094-3.184 7.094-7.094v-26.773c0-3.91-3.183-7.094-7.094-7.094zM179.832 420.598h-.902c-12.602 0-22.852-10.25-22.852-22.852v-26.773c0-12.602 10.25-22.852 22.852-22.852h.902c12.598 0 22.848 10.25 22.848 22.852v26.773c0 12.602-10.25 22.852-22.848 22.852zm-.902-56.72c-3.91 0-7.09 3.184-7.09 7.095v26.773c0 3.91 3.18 7.094 7.09 7.094h.902c3.91 0 7.09-3.184 7.09-7.094v-26.773c0-3.91-3.18-7.094-7.09-7.094zm0 0" opacity="1" data-original="#478fdf" class=""></path><path fill="#e4eaf7" d="M256.246 512a7.879 7.879 0 0 1-7.879-7.879V7.883a7.879 7.879 0 1 1 15.758 0V504.12a7.879 7.879 0 0 1-7.879 7.879zm0 0" opacity="1" data-original="#e4eaf7" class=""></path><g fill="#d2555f"><path d="M318.363 72.48a7.879 7.879 0 0 1-6.933-4.128l-30.723-56.715A7.886 7.886 0 0 1 283.883.953c3.824-2.074 8.61-.648 10.68 3.176l30.722 56.719c2.074 3.824.652 8.605-3.176 10.68a7.81 7.81 0 0 1-3.746.952zm0 0" fill="#d2555f" opacity="1" data-original="#d2555f" class=""></path><path d="M287.629 72.48a7.883 7.883 0 0 1-6.922-11.633L311.43 4.13C313.504.3 318.28-1.121 322.11.953s5.25 6.856 3.175 10.684l-30.723 56.715a7.879 7.879 0 0 1-6.933 4.128zM379.395 72.48a7.885 7.885 0 0 1-6.938-4.128l-30.723-56.715A7.886 7.886 0 0 1 344.91.953c3.828-2.074 8.61-.648 10.684 3.176l30.719 56.719a7.878 7.878 0 0 1-6.918 11.632zm0 0" fill="#d2555f" opacity="1" data-original="#d2555f" class=""></path><path d="M348.656 72.48a7.883 7.883 0 0 1-6.922-11.633L372.457 4.13a7.88 7.88 0 1 1 13.856 7.508l-30.72 56.715a7.885 7.885 0 0 1-6.937 4.128zM440.422 72.48a7.874 7.874 0 0 1-6.934-4.128l-30.722-56.715A7.88 7.88 0 0 1 405.94.953c3.825-2.074 8.606-.648 10.68 3.176l30.723 56.719a7.883 7.883 0 0 1-6.922 11.632zm0 0" fill="#d2555f" opacity="1" data-original="#d2555f" class=""></path><path d="M409.688 72.48a7.854 7.854 0 0 1-3.747-.953c-3.828-2.074-5.25-6.855-3.175-10.68L433.488 4.13a7.874 7.874 0 0 1 10.68-3.176 7.886 7.886 0 0 1 3.176 10.684L416.62 68.352a7.879 7.879 0 0 1-6.934 4.128zM501.45 72.48a7.879 7.879 0 0 1-6.934-4.128l-30.723-56.715A7.883 7.883 0 0 1 466.969.953c3.824-2.074 8.605-.648 10.68 3.176l30.722 56.719a7.88 7.88 0 0 1-3.176 10.68 7.81 7.81 0 0 1-3.746.952zm0 0" fill="#d2555f" opacity="1" data-original="#d2555f" class=""></path><path d="M470.715 72.48a7.854 7.854 0 0 1-3.746-.953c-3.828-2.074-5.25-6.855-3.176-10.68L494.516 4.13a7.874 7.874 0 0 1 10.68-3.176 7.88 7.88 0 0 1 3.175 10.684l-30.723 56.715a7.879 7.879 0 0 1-6.933 4.128zM318.363 162.441a7.879 7.879 0 0 1-6.933-4.129l-30.723-56.714a7.886 7.886 0 0 1 3.176-10.684c3.824-2.074 8.61-.648 10.68 3.176l30.722 56.719c2.074 3.824.652 8.605-3.176 10.68a7.854 7.854 0 0 1-3.746.952zm0 0" fill="#d2555f" opacity="1" data-original="#d2555f" class=""></path><path d="M287.629 162.441a7.883 7.883 0 0 1-6.922-11.633L311.43 94.09c2.074-3.824 6.851-5.25 10.68-3.176a7.88 7.88 0 0 1 3.175 10.684l-30.723 56.715a7.879 7.879 0 0 1-6.933 4.128zM379.395 162.441a7.885 7.885 0 0 1-6.938-4.129l-30.723-56.714a7.886 7.886 0 0 1 3.176-10.684c3.828-2.074 8.61-.648 10.684 3.176l30.719 56.719a7.878 7.878 0 0 1-6.918 11.632zm0 0" fill="#d2555f" opacity="1" data-original="#d2555f" class=""></path><path d="M348.656 162.441a7.883 7.883 0 0 1-6.922-11.633l30.723-56.718c2.074-3.824 6.856-5.25 10.684-3.176a7.881 7.881 0 0 1 3.171 10.684l-30.718 56.715a7.885 7.885 0 0 1-6.938 4.128zM440.422 162.441a7.874 7.874 0 0 1-6.934-4.129l-30.722-56.714a7.88 7.88 0 0 1 3.175-10.684c3.825-2.074 8.606-.648 10.68 3.176l30.723 56.719a7.883 7.883 0 0 1-6.922 11.632zm0 0" fill="#d2555f" opacity="1" data-original="#d2555f" class=""></path><path d="M409.688 162.441a7.854 7.854 0 0 1-3.747-.953c-3.828-2.074-5.25-6.855-3.175-10.68l30.722-56.718a7.877 7.877 0 0 1 10.68-3.176 7.886 7.886 0 0 1 3.176 10.684l-30.723 56.715a7.879 7.879 0 0 1-6.934 4.128zM501.45 162.441a7.879 7.879 0 0 1-6.934-4.129l-30.723-56.714a7.883 7.883 0 0 1 3.176-10.684c3.824-2.074 8.605-.648 10.68 3.176l30.722 56.719a7.88 7.88 0 0 1-6.922 11.632zm0 0" fill="#d2555f" opacity="1" data-original="#d2555f" class=""></path><path d="M470.715 162.441a7.854 7.854 0 0 1-3.746-.953c-3.828-2.074-5.25-6.855-3.176-10.68l30.723-56.718a7.877 7.877 0 0 1 10.68-3.176 7.88 7.88 0 0 1 3.175 10.684l-30.723 56.715a7.879 7.879 0 0 1-6.933 4.128zM318.363 248.324a7.875 7.875 0 0 1-6.933-4.125l-30.723-56.719c-2.07-3.824-.648-8.609 3.176-10.68a7.875 7.875 0 0 1 10.68 3.177l30.722 56.714a7.88 7.88 0 0 1-6.922 11.633zm0 0" fill="#d2555f" opacity="1" data-original="#d2555f" class=""></path><path d="M287.629 248.324a7.85 7.85 0 0 1-3.746-.949 7.886 7.886 0 0 1-3.176-10.684l30.723-56.714a7.875 7.875 0 0 1 10.68-3.176 7.875 7.875 0 0 1 3.175 10.68l-30.723 56.718a7.875 7.875 0 0 1-6.933 4.125zM379.395 248.324a7.881 7.881 0 0 1-6.938-4.125l-30.723-56.719c-2.07-3.824-.648-8.609 3.176-10.68a7.88 7.88 0 0 1 10.684 3.177l30.719 56.714a7.881 7.881 0 0 1-3.172 10.684 7.871 7.871 0 0 1-3.746.95zm0 0" fill="#d2555f" opacity="1" data-original="#d2555f" class=""></path><path d="M348.656 248.324a7.871 7.871 0 0 1-3.746-.949 7.886 7.886 0 0 1-3.176-10.684l30.723-56.714a7.88 7.88 0 1 1 13.856 7.503l-30.72 56.72a7.881 7.881 0 0 1-6.937 4.124zM440.422 248.324a7.87 7.87 0 0 1-6.934-4.125l-30.722-56.719a7.875 7.875 0 0 1 3.175-10.68c3.825-2.073 8.606-.652 10.68 3.177l30.723 56.714a7.886 7.886 0 0 1-3.176 10.684 7.86 7.86 0 0 1-3.746.95zm0 0" fill="#d2555f" opacity="1" data-original="#d2555f" class=""></path><path d="M409.688 248.324a7.88 7.88 0 0 1-6.922-11.633l30.722-56.714a7.874 7.874 0 0 1 10.68-3.176c3.824 2.07 5.246 6.855 3.176 10.68l-30.723 56.718a7.875 7.875 0 0 1-6.934 4.125zM501.45 248.324a7.875 7.875 0 0 1-6.934-4.125l-30.723-56.719c-2.07-3.824-.652-8.609 3.176-10.68 3.824-2.073 8.605-.652 10.68 3.177l30.722 56.714a7.883 7.883 0 0 1-3.176 10.684 7.85 7.85 0 0 1-3.746.95zm0 0" fill="#d2555f" opacity="1" data-original="#d2555f" class=""></path><path d="M470.715 248.324a7.88 7.88 0 0 1-6.922-11.633l30.723-56.714a7.874 7.874 0 0 1 10.68-3.176 7.875 7.875 0 0 1 3.175 10.68l-30.723 56.718a7.875 7.875 0 0 1-6.933 4.125zM318.363 333.965a7.879 7.879 0 0 1-6.933-4.13l-30.723-56.718a7.883 7.883 0 0 1 3.176-10.68 7.875 7.875 0 0 1 10.68 3.176l30.722 56.715a7.88 7.88 0 0 1-3.176 10.684 7.854 7.854 0 0 1-3.746.953zm0 0" fill="#d2555f" opacity="1" data-original="#d2555f" class=""></path><path d="M287.629 333.965a7.886 7.886 0 0 1-6.922-11.637l30.723-56.715c2.074-3.828 6.851-5.25 10.68-3.175s5.25 6.855 3.175 10.68l-30.723 56.718a7.879 7.879 0 0 1-6.933 4.129zM379.395 333.965a7.885 7.885 0 0 1-6.938-4.13l-30.723-56.718a7.883 7.883 0 0 1 3.176-10.68 7.88 7.88 0 0 1 10.684 3.176l30.719 56.715a7.881 7.881 0 0 1-6.918 11.637zm0 0" fill="#d2555f" opacity="1" data-original="#d2555f" class=""></path><path d="M348.656 333.965a7.886 7.886 0 0 1-6.922-11.637l30.723-56.715a7.88 7.88 0 1 1 13.856 7.504l-30.72 56.719a7.885 7.885 0 0 1-6.937 4.129zM440.422 333.965a7.874 7.874 0 0 1-6.934-4.13l-30.722-56.718c-2.075-3.824-.653-8.605 3.175-10.68 3.825-2.074 8.606-.652 10.68 3.176l30.723 56.715a7.886 7.886 0 0 1-6.922 11.637zm0 0" fill="#d2555f" opacity="1" data-original="#d2555f" class=""></path><path d="M409.688 333.965a7.854 7.854 0 0 1-3.747-.953 7.88 7.88 0 0 1-3.175-10.684l30.722-56.715a7.874 7.874 0 0 1 10.68-3.175 7.883 7.883 0 0 1 3.176 10.68l-30.723 56.718a7.879 7.879 0 0 1-6.934 4.129zM501.45 333.965a7.879 7.879 0 0 1-6.934-4.13l-30.723-56.718a7.88 7.88 0 0 1 3.176-10.68c3.824-2.074 8.605-.652 10.68 3.176l30.722 56.715a7.883 7.883 0 0 1-6.922 11.637zm0 0" fill="#d2555f" opacity="1" data-original="#d2555f" class=""></path><path d="M470.715 333.965a7.854 7.854 0 0 1-3.746-.953 7.88 7.88 0 0 1-3.176-10.684l30.723-56.715a7.874 7.874 0 0 1 10.68-3.175c3.827 2.074 5.25 6.855 3.175 10.68l-30.723 56.718a7.879 7.879 0 0 1-6.933 4.129zM318.363 423.922a7.875 7.875 0 0 1-6.933-4.125l-30.723-56.719c-2.07-3.828-.648-8.61 3.176-10.68a7.875 7.875 0 0 1 10.68 3.176l30.722 56.715a7.88 7.88 0 0 1-6.922 11.633zm0 0" fill="#d2555f" opacity="1" data-original="#d2555f" class=""></path><path d="M287.629 423.922a7.849 7.849 0 0 1-3.746-.95 7.886 7.886 0 0 1-3.176-10.683l30.723-56.715a7.875 7.875 0 0 1 10.68-3.176 7.874 7.874 0 0 1 3.175 10.68l-30.723 56.719a7.875 7.875 0 0 1-6.933 4.125zM379.395 423.922a7.881 7.881 0 0 1-6.938-4.125l-30.723-56.719c-2.07-3.828-.648-8.61 3.176-10.68a7.88 7.88 0 0 1 10.684 3.176l30.719 56.715a7.881 7.881 0 0 1-3.172 10.684 7.871 7.871 0 0 1-3.746.949zm0 0" fill="#d2555f" opacity="1" data-original="#d2555f" class=""></path><path d="M348.656 423.922a7.871 7.871 0 0 1-3.746-.95 7.886 7.886 0 0 1-3.176-10.683l30.723-56.715a7.88 7.88 0 0 1 10.684-3.176 7.876 7.876 0 0 1 3.171 10.68l-30.718 56.719a7.881 7.881 0 0 1-6.938 4.125zM440.422 423.922a7.87 7.87 0 0 1-6.934-4.125l-30.722-56.719a7.874 7.874 0 0 1 3.175-10.68c3.825-2.074 8.606-.652 10.68 3.176l30.723 56.715a7.886 7.886 0 0 1-3.176 10.684 7.86 7.86 0 0 1-3.746.949zm0 0" fill="#d2555f" opacity="1" data-original="#d2555f" class=""></path><path d="M409.688 423.922a7.88 7.88 0 0 1-6.922-11.633l30.722-56.715a7.874 7.874 0 0 1 10.68-3.176c3.824 2.07 5.246 6.852 3.176 10.68l-30.723 56.719a7.875 7.875 0 0 1-6.934 4.125zM501.45 423.922a7.875 7.875 0 0 1-6.934-4.125l-30.723-56.719c-2.07-3.828-.652-8.61 3.176-10.68 3.824-2.074 8.605-.652 10.68 3.176l30.722 56.715a7.883 7.883 0 0 1-3.176 10.684 7.849 7.849 0 0 1-3.746.949zm0 0" fill="#d2555f" opacity="1" data-original="#d2555f" class=""></path><path d="M470.715 423.922a7.88 7.88 0 0 1-6.922-11.633l30.723-56.715a7.874 7.874 0 0 1 10.68-3.176 7.874 7.874 0 0 1 3.175 10.68l-30.723 56.719a7.875 7.875 0 0 1-6.933 4.125zM318.363 509.809a7.875 7.875 0 0 1-6.933-4.125l-30.723-56.72c-2.07-3.823-.648-8.609 3.176-10.679 3.824-2.078 8.61-.652 10.68 3.176l30.722 56.715a7.88 7.88 0 0 1-6.922 11.633zm0 0" fill="#d2555f" opacity="1" data-original="#d2555f" class=""></path><path d="M287.629 509.809a7.85 7.85 0 0 1-3.746-.95 7.886 7.886 0 0 1-3.176-10.683l30.723-56.715a7.875 7.875 0 0 1 10.68-3.176 7.875 7.875 0 0 1 3.175 10.68l-30.723 56.719a7.875 7.875 0 0 1-6.933 4.125zM379.395 509.809a7.881 7.881 0 0 1-6.938-4.125l-30.723-56.72c-2.07-3.823-.648-8.609 3.176-10.679 3.828-2.078 8.61-.652 10.684 3.176l30.719 56.715a7.881 7.881 0 0 1-3.172 10.683 7.871 7.871 0 0 1-3.746.95zm0 0" fill="#d2555f" opacity="1" data-original="#d2555f" class=""></path><path d="M348.656 509.809a7.871 7.871 0 0 1-3.746-.95 7.886 7.886 0 0 1-3.176-10.683l30.723-56.715a7.88 7.88 0 1 1 13.856 7.504l-30.72 56.719a7.881 7.881 0 0 1-6.937 4.125zM440.422 509.809a7.87 7.87 0 0 1-6.934-4.125l-30.722-56.72a7.875 7.875 0 0 1 3.175-10.679c3.825-2.078 8.606-.652 10.68 3.176l30.723 56.715a7.886 7.886 0 0 1-3.176 10.683 7.86 7.86 0 0 1-3.746.95zm0 0" fill="#d2555f" opacity="1" data-original="#d2555f" class=""></path><path d="M409.688 509.809a7.88 7.88 0 0 1-6.922-11.633l30.722-56.715a7.874 7.874 0 0 1 10.68-3.176c3.824 2.07 5.246 6.856 3.176 10.68l-30.723 56.719a7.875 7.875 0 0 1-6.934 4.125zM501.45 509.809a7.875 7.875 0 0 1-6.934-4.125l-30.723-56.72c-2.07-3.823-.652-8.609 3.176-10.679 3.824-2.078 8.605-.652 10.68 3.176l30.722 56.715a7.883 7.883 0 0 1-3.176 10.683 7.85 7.85 0 0 1-3.746.95zm0 0" fill="#d2555f" opacity="1" data-original="#d2555f" class=""></path><path d="M470.715 509.809a7.88 7.88 0 0 1-6.922-11.633l30.723-56.715a7.874 7.874 0 0 1 10.68-3.176 7.875 7.875 0 0 1 3.175 10.68l-30.723 56.719a7.875 7.875 0 0 1-6.933 4.125zm0 0" fill="#d2555f" opacity="1" data-original="#d2555f" class=""></path></g><path fill="#ffeecf" d="M388.777 256c0 48.379-25.675 90.77-64.136 114.293-20.309 12.418-44.188 19.574-69.73 19.574-23.09 0-44.817-5.844-63.77-16.137-41.75-22.671-70.094-66.89-70.094-117.73 0-73.93 59.937-133.863 133.863-133.863 73.93 0 133.867 59.933 133.867 133.863zm0 0" opacity="1" data-original="#ffeecf" class=""></path><path fill="#f5dcaa" d="M306.477 132.438c27.62 24.519 45.035 60.289 45.035 100.128 0 48.38-25.68 90.77-64.14 114.293-20.31 12.418-44.188 19.57-69.727 19.57-18.286 0-35.711-3.675-51.586-10.312a134.28 134.28 0 0 0 25.082 17.613c18.953 10.297 40.68 16.137 63.77 16.137 25.538 0 49.417-7.156 69.726-19.574 38.465-23.52 64.14-65.91 64.14-114.293 0-55.652-33.968-103.371-82.3-123.563zm0 0" opacity="1" data-original="#f5dcaa" class=""></path><path fill="#ffcd74" d="m309.32 203.418-1.039 21.758c-.02.472-.222.914-.558 1.25l-43.797 43.8c4.273 12.88 1.3 27.63-8.942 37.872-15.074 15.086-39.941 14.425-54.168-1.961-11.921-13.742-11.976-34.492-.105-48.278 10.254-11.921 26.11-15.59 39.816-11.03l43.801-43.798a1.871 1.871 0 0 1 1.25-.558l21.758-1.04a1.901 1.901 0 0 1 1.984 1.985zm0 0" opacity="1" data-original="#ffcd74"></path><path fill="#ffeecf" d="M230.605 287.95a7.879 7.879 0 1 1-15.757 0 7.879 7.879 0 1 1 15.757 0zm0 0" opacity="1" data-original="#ffeecf" class=""></path><path fill="#ffb96a" d="m305.176 228.977-11.082 11.082a.038.038 0 0 1-.055 0l-4.762-4.766c-3.129-3.113-3.078-8.215.145-11.277 3.14-2.985 8.183-2.664 11.25.398l4.504 4.508a.038.038 0 0 1 0 .055zM290.367 243.781l-11.137 11.137-4.789-4.79a7.87 7.87 0 0 1 0-11.136 7.87 7.87 0 0 1 11.137 0zm0 0" opacity="1" data-original="#ffb96a"></path></g></svg>